<svg width="1825" height="1050" xmlns="http://www.w3.org/2000/svg" xmlns:xlink="http://www.w3.org/1999/xlink" xml:space="preserve" overflow="hidden"><g transform="translate(-155 -352)"><g><rect x="162" y="359" width="1814" height="1038" fill="#FFFFFF" fill-opacity="1"/><rect x="1191.5" y="359.5" width="739" height="218" stroke="#172C51" stroke-width="4.58333" stroke-linecap="butt" stroke-linejoin="miter" stroke-miterlimit="8" stroke-opacity="1" fill="#C5E0B4" fill-opacity="1"/><text fill="#000000" fill-opacity="1" font-family="Calibri,Calibri_MSFontService,sans-serif" font-style="normal" font-variant="normal" font-weight="400" font-stretch="normal" font-size="73" text-anchor="start" direction="ltr" writing-mode="lr-tb" unicode-bidi="normal" text-decoration="none" transform="matrix(1 0 0 1 1321.81 493)">Decoder Thread</text><rect x="1189.5" y="1180.5" width="740" height="217" stroke="#172C51" stroke-width="4.58333" stroke-linecap="butt" stroke-linejoin="miter" stroke-miterlimit="8" stroke-opacity="1" fill="#C5E0B4" fill-opacity="1"/><text fill="#000000" fill-opacity="1" font-family="Calibri,Calibri_MSFontService,sans-serif" font-style="normal" font-variant="normal" font-weight="400" font-stretch="normal" font-size="73" text-anchor="start" direction="ltr" writing-mode="lr-tb" unicode-bidi="normal" text-decoration="none" transform="matrix(1 0 0 1 1358.76 1313)">Audio Thread</text><rect x="162.5" y="769.5" width="740" height="218" stroke="#172C51" stroke-width="4.58333" stroke-linecap="butt" stroke-linejoin="miter" stroke-miterlimit="8" stroke-opacity="1" fill="#C5E0B4" fill-opacity="1"/><text fill="#000000" fill-opacity="1" font-family="Calibri,Calibri_MSFontService,sans-serif" font-style="normal" font-variant="normal" font-weight="400" font-stretch="normal" font-size="73" text-anchor="start" direction="ltr" writing-mode="lr-tb" unicode-bidi="normal" text-decoration="none" transform="matrix(1 0 0 1 342.987 903)">Main Thread</text><path d="M1174.5 805.834C1174.5 785.768 1190.77 769.5 1210.83 769.5L1908.17 769.5C1928.23 769.5 1944.5 785.768 1944.5 805.834L1944.5 951.166C1944.5 971.233 1928.23 987.5 1908.17 987.5L1210.83 987.5C1190.77 987.5 1174.5 971.233 1174.5 951.166Z" stroke="#172C51" stroke-width="4.58333" stroke-linecap="butt" stroke-linejoin="miter" stroke-miterlimit="8" stroke-opacity="1" fill="#F8CBAD" fill-rule="evenodd" fill-opacity="1"/><text fill="#000000" fill-opacity="1" font-family="Calibri,Calibri_MSFontService,sans-serif" font-style="normal" font-variant="normal" font-weight="400" font-stretch="normal" font-size="73" text-anchor="start" direction="ltr" writing-mode="lr-tb" unicode-bidi="normal" text-decoration="none" transform="matrix(1 0 0 1 1455.3 859)">Shared</text><text fill="#000000" fill-opacity="1" font-family="Calibri,Calibri_MSFontService,sans-serif" font-style="normal" font-variant="normal" font-weight="400" font-stretch="normal" font-size="73" text-anchor="start" direction="ltr" writing-mode="lr-tb" unicode-bidi="normal" text-decoration="none" transform="matrix(1 0 0 1 1393.51 947)">Buffer Pool</text><path d="M1564.08 987.5 1564.08 1157.04 1554.92 1157.04 1554.92 987.5ZM1573.25 1152.46 1559.5 1179.96 1545.75 1152.46Z" fill="#000000" fill-rule="nonzero" fill-opacity="1"/><path d="M0.000431439-4.58333 249.29-4.55987 249.289 4.6068-0.000431439 4.58333ZM244.708-13.727 272.206 0.0256234 244.705 13.773Z" fill="#000000" fill-rule="nonzero" fill-opacity="1" transform="matrix(-1 0 0 1 1174.71 878.5)"/><path d="M4.58315-0.0405814 6.08438 169.504-3.08193 169.585-4.58315 0.0405814ZM15.2101 164.84 1.70413 192.46-12.2888 165.083Z" fill="#000000" fill-rule="nonzero" fill-opacity="1" transform="matrix(-1 0 0 1 1561.2 577.5)"/><rect x="1572" y="1033" width="205" height="100" fill="#FFFFFF" fill-opacity="1"/><text fill="#000000" fill-opacity="1" font-family="Calibri,Calibri_MSFontService,sans-serif" font-style="normal" font-variant="normal" font-weight="700" font-stretch="normal" font-size="55" text-anchor="start" direction="ltr" writing-mode="lr-tb" unicode-bidi="normal" text-decoration="none" transform="matrix(1 0 0 1 1605.18 1101)">Audio</text><rect x="928" y="769" width="202" height="100" fill="#FFFFFF" fill-opacity="1"/><text fill="#000000" fill-opacity="1" font-family="Calibri,Calibri_MSFontService,sans-serif" font-style="normal" font-variant="normal" font-weight="700" font-stretch="normal" font-size="55" text-anchor="start" direction="ltr" writing-mode="lr-tb" unicode-bidi="normal" text-decoration="none" transform="matrix(1 0 0 1 961.083 837)">Video</text><path d="M1189.55 1293.38 1180.39 1293.25 1180.52 1284.08 1189.68 1284.21ZM1171.22 1293.12 1162.05 1292.99 1162.18 1283.82 1171.35 1283.95ZM1152.77 1292.69 1143.61 1292.31 1143.99 1283.15 1153.15 1283.53ZM1134.45 1291.92 1127.84 1291.64 1125.17 1291.46 1125.8 1282.31 1128.41 1282.49 1128.28 1282.49 1134.83 1282.76ZM1116.02 1290.82 1106.88 1290.19 1107.51 1281.05 1116.66 1281.68ZM1097.73 1289.56 1097.1 1289.51 1088.49 1288.69 1089.36 1279.56 1097.92 1280.38 1097.8 1280.37 1098.37 1280.41ZM1079.36 1287.81 1070.24 1286.94 1071.11 1277.81 1080.24 1278.69ZM1061.01 1285.91 1051.91 1284.79 1053.02 1275.69 1062.12 1276.81ZM1042.81 1283.68 1036.24 1282.88 1033.61 1282.49 1034.95 1273.42 1037.53 1273.8 1037.41 1273.79 1043.93 1274.58ZM1024.54 1281.14 1015.47 1279.79 1016.82 1270.73 1025.88 1272.07ZM1006.4 1278.45 1006.24 1278.42 997.258 1276.86 998.834 1267.83 1007.76 1269.38 1007.64 1269.37 1007.75 1269.38ZM988.228 1275.28 979.198 1273.7 980.774 1264.67 989.804 1266.25ZM970.085 1271.94 961.097 1270.14 962.901 1261.15 971.889 1262.96ZM952.11 1268.34 947.372 1267.38 943.032 1266.4 945.064 1257.46 949.347 1258.43 949.233 1258.41 953.914 1259.35ZM934.094 1264.37 925.155 1262.34 927.186 1253.4 936.125 1255.43ZM916.117 1260.21 907.233 1257.96 909.492 1249.07 918.376 1251.33ZM898.349 1255.7 890.433 1253.68 889.358 1253.38 891.845 1244.56 892.863 1244.85 892.749 1244.81 900.608 1246.81ZM880.535 1250.89 871.712 1248.41 874.199 1239.58 883.022 1242.07ZM862.774 1245.89 854.02 1243.17 856.737 1234.41 865.492 1237.13ZM845.265 1240.45 836.51 1237.73 839.228 1228.98 847.983 1231.7ZM827.71 1234.76 819.032 1231.81 821.984 1223.13 830.662 1226.08ZM810.353 1228.85 809.679 1228.63 801.634 1225.64 804.825 1217.04 812.81 1220.01 812.691 1219.97 813.305 1220.18ZM793.041 1222.45 784.448 1219.26 787.639 1210.66 796.232 1213.85ZM775.825 1215.78 767.327 1212.34 770.764 1203.84 779.262 1207.28ZM758.713 1208.82 750.322 1205.13 754.013 1196.74 762.404 1200.43ZM741.931 1201.44 735.937 1198.81 733.444 1197.61 737.398 1189.34 739.826 1190.5 739.694 1190.44 745.622 1193.05ZM725.174 1193.66 716.904 1189.71 720.857 1181.44 729.127 1185.39ZM708.573 1185.53 700.439 1181.3 704.667 1173.17 712.801 1177.4ZM692.306 1177.08 691.464 1176.64 684.17 1172.51 688.686 1164.53 695.909 1168.62 695.765 1168.54 696.534 1168.94ZM676.193 1167.99 670.811 1164.95 668.124 1163.29 672.944 1155.49 675.556 1157.1 675.404 1157.01 680.709 1160.02ZM660.327 1158.47 652.529 1153.65 657.349 1145.85 665.146 1150.67ZM644.748 1148.45 637.159 1143.31 642.299 1135.72 649.889 1140.86ZM629.51 1137.89 622.162 1132.41 627.642 1125.06 634.99 1130.54ZM614.679 1126.73 607.615 1120.89 613.457 1113.83 620.521 1119.67ZM600.551 1115.05 600.14 1114.71 593.615 1108.67 599.84 1101.94 606.271 1107.89 606.08 1107.72 606.392 1107.98ZM586.887 1102.45 585.781 1101.42 580.254 1095.82 586.781 1089.38 592.234 1094.91 592.083 1094.77 593.112 1095.72ZM573.894 1089.01 572.806 1087.84 567.766 1081.99 574.711 1076 579.7 1081.79 579.594 1081.68 580.627 1082.79ZM561.9 1074.72 561.351 1074.04 556.327 1067.22 563.706 1061.78 568.676 1068.53 568.567 1068.38 569.06 1069ZM551.004 1059.29 547.115 1052.94 546.18 1051.24 554.211 1046.82 555.093 1048.42 554.986 1048.24 558.82 1054.49ZM541.79 1042.94 539.69 1038.64 537.885 1034.39 546.322 1030.8 548.08 1034.94 547.981 1034.72 550.029 1038.92ZM534.519 1025.59 534.004 1024.17 531.784 1016.7 531.67 1015.93 540.738 1014.59 540.804 1015.04 540.663 1014.4 542.753 1021.43 542.67 1021.18 543.14 1022.48ZM522.417 1016.55 532.5 987.5 549.686 1012.99Z" fill="#000000" fill-rule="nonzero" fill-opacity="1"/><rect x="815" y="1130" width="171" height="100" fill="#FFFFFF" fill-opacity="1"/><text fill="#000000" fill-opacity="1" font-family="Calibri,Calibri_MSFontService,sans-serif" font-style="normal" font-variant="normal" font-weight="700" font-stretch="normal" font-size="55" text-anchor="start" direction="ltr" writing-mode="lr-tb" unicode-bidi="normal" text-decoration="none" transform="matrix(1 0 0 1 848.2 1197)">Sync</text></g></g></svg>